<svg version="1.1" viewBox="0.0 0.0 756.4094488188977 738.4619422572179" fill="none" stroke="none" stroke-linecap="square" stroke-miterlimit="10" xmlns:xlink="http://www.w3.org/1999/xlink" xmlns="http://www.w3.org/2000/svg"><clipPath id="p.0"><path d="m0 0l756.4094 0l0 738.4619l-756.4094 0l0 -738.4619z" clip-rule="nonzero"/></clipPath><g clip-path="url(#p.0)"><path fill="#000000" fill-opacity="0.0" d="m0 0l756.4094 0l0 738.4619l-756.4094 0z" fill-rule="evenodd"/><path fill="#ffffff" d="m0 0.0026485564l756.4094 0l0 738.4567l-756.4094 0z" fill-rule="evenodd"/><path stroke="#ffffff" stroke-width="1.0" stroke-linejoin="round" stroke-linecap="butt" d="m0 0.0026485564l756.4094 0l0 738.4567l-756.4094 0z" fill-rule="evenodd"/><path fill="#cfe2f3" d="m67.46203 178.26772l85.637794 -44.889755l342.55118 0l-85.63779 44.889755z" fill-rule="evenodd"/><path stroke="#000000" stroke-width="1.0" stroke-linejoin="round" stroke-linecap="butt" d="m67.46203 178.26772l85.637794 -44.889755l342.55118 0l-85.63779 44.889755z" fill-rule="evenodd"/><path fill="#000000" d="m171.03171 163.30284l0 -15.265625l3.09375 0l0 15.265625l-3.09375 0zm6.050644 0l0 -15.265625l3.0 0l6.25 10.1875l0 -10.1875l2.859375 0l0 15.265625l-3.078125 0l-6.15625 -9.953125l0 9.953125l-2.875 0zm15.371246 0l0 -15.265625l4.953125 0q2.8125 0 3.671875 0.234375q1.296875 0.34375 2.1875 1.5q0.890625 1.140625 0.890625 2.953125q0 1.40625 -0.515625 2.375q-0.515625 0.953125 -1.296875 1.5q-0.78125 0.546875 -1.59375 0.71875q-1.109375 0.21875 -3.203125 0.21875l-2.0 0l0 5.765625l-3.09375 0zm3.09375 -12.6875l0 4.328125l1.6875 0q1.8125 0 2.421875 -0.234375q0.625 -0.234375 0.96875 -0.75q0.359375 -0.515625 0.359375 -1.1875q0 -0.828125 -0.5 -1.359375q-0.484375 -0.546875 -1.234375 -0.6875q-0.546875 -0.109375 -2.21875 -0.109375l-1.484375 0zm11.116318 -2.578125l3.078125 0l0 8.265625q0 1.96875 0.125 2.546875q0.1875 0.9375 0.9375 1.515625q0.75 0.5625 2.03125 0.5625q1.3125 0 1.984375 -0.53125q0.671875 -0.546875 0.796875 -1.328125q0.140625 -0.78125 0.140625 -2.59375l0 -8.4375l3.078125 0l0 8.015625q0 2.75 -0.25 3.890625q-0.25 1.125 -0.921875 1.90625q-0.671875 0.78125 -1.796875 1.25q-1.125 0.46875 -2.9375 0.46875q-2.1875 0 -3.3125 -0.5q-1.125 -0.515625 -1.78125 -1.3125q-0.65625 -0.8125 -0.875 -1.703125q-0.296875 -1.3125 -0.296875 -3.875l0 -8.140625zm18.855621 15.265625l0 -12.6875l-4.53125 0l0 -2.578125l12.140625 0l0 2.578125l-4.515625 0l0 12.6875l-3.09375 0zm15.500595 0l0 -15.265625l2.921875 0l0 15.265625l-2.921875 0zm16.066269 0l-2.71875 0l0 -1.625q-0.671875 0.953125 -1.59375 1.421875q-0.921875 0.453125 -1.859375 0.453125q-1.90625 0 -3.265625 -1.53125q-1.359375 -1.546875 -1.359375 -4.296875q0 -2.8125 1.3125 -4.265625q1.328125 -1.46875 3.359375 -1.46875q1.84375 0 3.203125 1.546875l0 -5.5l2.921875 0l0 15.265625zm-7.8125 -5.765625q0 1.765625 0.5 2.5625q0.703125 1.140625 1.96875 1.140625q1.015625 0 1.71875 -0.859375q0.71875 -0.859375 0.71875 -2.5625q0 -1.90625 -0.6875 -2.75q-0.6875 -0.84375 -1.765625 -0.84375q-1.046875 0 -1.75 0.828125q-0.703125 0.828125 -0.703125 2.484375zm13.496826 5.765625l-2.921875 0l0 -11.0625l2.71875 0l0 1.578125q0.703125 -1.125 1.25 -1.46875q0.5625 -0.359375 1.265625 -0.359375q1.0 0 1.9375 0.5625l-0.90625 2.546875q-0.75 -0.484375 -1.375 -0.484375q-0.625 0 -1.046875 0.34375q-0.421875 0.328125 -0.671875 1.21875q-0.25 0.890625 -0.25 3.703125l0 3.421875zm12.362549 0l-2.921875 0l0 -11.03125q-1.609375 1.5 -3.78125 2.21875l0 -2.65625q1.140625 -0.375 2.484375 -1.421875q1.34375 -1.046875 1.84375 -2.4375l2.375 0l0 15.328125zm4.9241943 -11.0625l2.71875 0l0 1.625q0.53125 -0.828125 1.4375 -1.34375q0.90625 -0.53125 2.015625 -0.53125q1.921875 0 3.265625 1.515625q1.34375 1.5 1.34375 4.203125q0 2.765625 -1.359375 4.3125q-1.34375 1.53125 -3.265625 1.53125q-0.921875 0 -1.671875 -0.359375q-0.734375 -0.375 -1.5625 -1.25l0 5.5625l-2.921875 0l0 -15.265625zm2.890625 5.34375q0 1.859375 0.734375 2.75q0.75 0.890625 1.8125 0.890625q1.015625 0 1.6875 -0.8125q0.6875 -0.8125 0.6875 -2.6875q0 -1.734375 -0.703125 -2.578125q-0.703125 -0.84375 -1.734375 -0.84375q-1.0625 0 -1.78125 0.828125q-0.703125 0.828125 -0.703125 2.453125zm10.215576 -6.84375l0 -2.703125l2.921875 0l0 2.703125l-2.921875 0zm0 12.5625l0 -11.0625l2.921875 0l0 11.0625l-2.921875 0zm15.988159 0l-2.921875 0l0 -5.640625q0 -1.796875 -0.1875 -2.3125q-0.1875 -0.53125 -0.609375 -0.828125q-0.421875 -0.296875 -1.015625 -0.296875q-0.765625 0 -1.375 0.421875q-0.59375 0.421875 -0.828125 1.109375q-0.21875 0.6875 -0.21875 2.53125l0 5.015625l-2.921875 0l0 -11.0625l2.71875 0l0 1.625q1.4375 -1.875 3.640625 -1.875q0.96875 0 1.765625 0.359375q0.8125 0.34375 1.21875 0.890625q0.40625 0.53125 0.5625 1.21875q0.171875 0.6875 0.171875 1.96875l0 6.875zm2.8874512 -2.921875l2.9375 0l0 2.09375q0 1.265625 -0.21875 2.0q-0.21875 0.734375 -0.828125 1.3125q-0.609375 0.59375 -1.546875 0.921875l-0.578125 -1.203125q0.890625 -0.296875 1.265625 -0.8125q0.375 -0.5 0.390625 -1.390625l-1.421875 0l0 -2.921875zm11.929413 2.921875l0 -15.265625l2.921875 0l0 15.265625l-2.921875 0zm16.066254 0l-2.71875 0l0 -1.625q-0.671875 0.953125 -1.59375 1.421875q-0.921875 0.453125 -1.859375 0.453125q-1.90625 0 -3.265625 -1.53125q-1.359375 -1.546875 -1.359375 -4.296875q0 -2.8125 1.3125 -4.265625q1.328125 -1.46875 3.359375 -1.46875q1.84375 0 3.203125 1.546875l0 -5.5l2.921875 0l0 15.265625zm-7.8125 -5.765625q0 1.765625 0.5 2.5625q0.703125 1.140625 1.96875 1.140625q1.015625 0 1.71875 -0.859375q0.71875 -0.859375 0.71875 -2.5625q0 -1.90625 -0.6875 -2.75q-0.6875 -0.84375 -1.765625 -0.84375q-1.046875 0 -1.75 0.828125q-0.703125 0.828125 -0.703125 2.484375zm13.496826 5.765625l-2.921875 0l0 -11.0625l2.71875 0l0 1.578125q0.703125 -1.125 1.25 -1.46875q0.5625 -0.359375 1.265625 -0.359375q1.0 0 1.9375 0.5625l-0.90625 2.546875q-0.75 -0.484375 -1.375 -0.484375q-0.625 0 -1.046875 0.34375q-0.421875 0.328125 -0.671875 1.21875q-0.25 0.890625 -0.25 3.703125l0 3.421875zm14.753204 -2.71875l0 2.71875l-10.25 0q0.171875 -1.546875 1.0 -2.921875q0.828125 -1.375 3.296875 -3.65625q1.96875 -1.84375 2.421875 -2.5q0.609375 -0.90625 0.609375 -1.796875q0 -0.96875 -0.53125 -1.5q-0.53125 -0.53125 -1.453125 -0.53125q-0.921875 0 -1.46875 0.5625q-0.53125 0.546875 -0.609375 1.828125l-2.921875 -0.296875q0.265625 -2.40625 1.640625 -3.453125q1.375 -1.0625 3.4375 -1.0625q2.25 0 3.53125 1.21875q1.296875 1.21875 1.296875 3.03125q0 1.03125 -0.375 1.96875q-0.359375 0.921875 -1.15625 1.9375q-0.53125 0.6875 -1.921875 1.953125q-1.375 1.265625 -1.75 1.6875q-0.375 0.421875 -0.59375 0.8125l5.796875 0zm2.5335693 -8.34375l2.71875 0l0 1.625q0.53125 -0.828125 1.4375 -1.34375q0.90625 -0.53125 2.015625 -0.53125q1.921875 0 3.265625 1.515625q1.34375 1.5 1.34375 4.203125q0 2.765625 -1.359375 4.3125q-1.34375 1.53125 -3.265625 1.53125q-0.921875 0 -1.671875 -0.359375q-0.734375 -0.375 -1.5625 -1.25l0 5.5625l-2.921875 0l0 -15.265625zm2.890625 5.34375q0 1.859375 0.734375 2.75q0.75 0.890625 1.8125 0.890625q1.015625 0 1.6875 -0.8125q0.6875 -0.8125 0.6875 -2.6875q0 -1.734375 -0.703125 -2.578125q-0.703125 -0.84375 -1.734375 -0.84375q-1.0625 0 -1.78125 0.828125q-0.703125 0.828125 -0.703125 2.453125zm10.215576 -6.84375l0 -2.703125l2.921875 0l0 2.703125l-2.921875 0zm0 12.5625l0 -11.0625l2.921875 0l0 11.0625l-2.921875 0zm15.988129 0l-2.921875 0l0 -5.640625q0 -1.796875 -0.1875 -2.3125q-0.1875 -0.53125 -0.609375 -0.828125q-0.421875 -0.296875 -1.015625 -0.296875q-0.765625 0 -1.375 0.421875q-0.59375 0.421875 -0.828125 1.109375q-0.21875 0.6875 -0.21875 2.53125l0 5.015625l-2.921875 0l0 -11.0625l2.71875 0l0 1.625q1.4375 -1.875 3.640625 -1.875q0.96875 0 1.765625 0.359375q0.8125 0.34375 1.21875 0.890625q0.40625 0.53125 0.5625 1.21875q0.171875 0.6875 0.171875 1.96875l0 6.875z" fill-rule="nonzero"/><path fill="#cfe2f3" d="m36.198162 208.22966l490.71652 0l0 44.889755l-490.71652 0z" fill-rule="evenodd"/><path stroke="#000000" stroke-width="1.0" stroke-linejoin="round" stroke-linecap="butt" d="m36.198162 208.22966l490.71652 0l0 44.889755l-490.71652 0z" fill-rule="evenodd"/><path fill="#000000" d="m167.82408 238.15454l0 -15.265625l2.921875 0l0 15.265625l-2.921875 0zm16.066269 0l-2.71875 0l0 -1.625q-0.671875 0.953125 -1.59375 1.421875q-0.921875 0.453125 -1.859375 0.453125q-1.90625 0 -3.265625 -1.53125q-1.359375 -1.546875 -1.359375 -4.296875q0 -2.8125 1.3125 -4.265625q1.328125 -1.46875 3.359375 -1.46875q1.84375 0 3.203125 1.546875l0 -5.5l2.921875 0l0 15.265625zm-7.8125 -5.765625q0 1.765625 0.5 2.5625q0.703125 1.140625 1.96875 1.140625q1.015625 0 1.71875 -0.859375q0.71875 -0.859375 0.71875 -2.5625q0 -1.90625 -0.6875 -2.75q-0.6875 -0.84375 -1.765625 -0.84375q-1.046875 0 -1.75 0.828125q-0.703125 0.828125 -0.703125 2.484375zm13.496826 5.765625l-2.921875 0l0 -11.0625l2.71875 0l0 1.578125q0.703125 -1.125 1.25 -1.46875q0.5625 -0.359375 1.265625 -0.359375q1.0 0 1.9375 0.5625l-0.90625 2.546875q-0.75 -0.484375 -1.375 -0.484375q-0.625 0 -1.046875 0.34375q-0.421875 0.328125 -0.671875 1.21875q-0.25 0.890625 -0.25 3.703125l0 3.421875zm12.362564 0l-2.921875 0l0 -11.03125q-1.609375 1.5 -3.78125 2.21875l0 -2.65625q1.140625 -0.375 2.484375 -1.421875q1.34375 -1.046875 1.84375 -2.4375l2.375 0l0 15.328125zm8.049194 0l-4.46875 -11.0625l3.078125 0l2.078125 5.640625l0.609375 1.890625q0.234375 -0.71875 0.296875 -0.953125q0.15625 -0.46875 0.3125 -0.9375l2.109375 -5.640625l3.0 0l-4.390625 11.0625l-2.625 0zm11.002319 -7.6875l-2.65625 -0.484375q0.453125 -1.59375 1.546875 -2.359375q1.09375 -0.78125 3.25 -0.78125q1.953125 0 2.90625 0.46875q0.96875 0.453125 1.359375 1.171875q0.390625 0.71875 0.390625 2.625l-0.03125 3.40625q0 1.46875 0.125 2.15625q0.140625 0.6875 0.53125 1.484375l-2.890625 0q-0.109375 -0.296875 -0.28125 -0.859375q-0.078125 -0.265625 -0.109375 -0.34375q-0.75 0.71875 -1.609375 1.09375q-0.84375 0.359375 -1.8125 0.359375q-1.703125 0 -2.6875 -0.921875q-0.984375 -0.9375 -0.984375 -2.34375q0 -0.9375 0.4375 -1.671875q0.453125 -0.734375 1.25 -1.125q0.8125 -0.390625 2.34375 -0.6875q2.046875 -0.390625 2.84375 -0.71875l0 -0.296875q0 -0.84375 -0.421875 -1.203125q-0.421875 -0.359375 -1.578125 -0.359375q-0.78125 0 -1.21875 0.3125q-0.4375 0.3125 -0.703125 1.078125zm3.921875 2.375q-0.5625 0.1875 -1.78125 0.453125q-1.21875 0.25 -1.59375 0.5q-0.578125 0.40625 -0.578125 1.03125q0 0.625 0.453125 1.078125q0.46875 0.4375 1.171875 0.4375q0.796875 0 1.515625 -0.515625q0.53125 -0.40625 0.6875 -0.96875q0.125 -0.375 0.125 -1.4375l0 -0.578125zm5.7523193 5.3125l0 -15.265625l2.921875 0l0 15.265625l-2.921875 0zm11.210663 -8.5l0 -2.6875l10.671875 0l0 2.6875l-10.671875 0zm0 4.625l0 -2.703125l10.671875 0l0 2.703125l-10.671875 0zm19.05281 3.875l0 -15.265625l6.484375 0q2.453125 0 3.5625 0.421875q1.109375 0.40625 1.765625 1.453125q0.671875 1.046875 0.671875 2.40625q0 1.71875 -1.015625 2.84375q-1.0 1.109375 -3.015625 1.40625q1.0 0.578125 1.640625 1.28125q0.65625 0.6875 1.765625 2.46875l1.859375 2.984375l-3.6875 0l-2.21875 -3.328125q-1.1875 -1.78125 -1.625 -2.234375q-0.4375 -0.46875 -0.9375 -0.640625q-0.484375 -0.171875 -1.546875 -0.171875l-0.625 0l0 6.375l-3.078125 0zm3.078125 -8.8125l2.28125 0q2.21875 0 2.765625 -0.1875q0.5625 -0.1875 0.875 -0.640625q0.3125 -0.46875 0.3125 -1.140625q0 -0.78125 -0.421875 -1.25q-0.40625 -0.46875 -1.15625 -0.59375q-0.375 -0.0625 -2.25 -0.0625l-2.40625 0l0 3.875zm12.308746 8.8125l0 -15.265625l11.328125 0l0 2.578125l-8.234375 0l0 3.390625l7.65625 0l0 2.5625l-7.65625 0l0 4.15625l8.515625 0l0 2.578125l-11.609375 0zm27.991302 0l-3.34375 0l-1.328125 -3.46875l-6.109375 0l-1.265625 3.46875l-3.265625 0l5.953125 -15.265625l3.25 0l6.109375 15.265625zm-5.671875 -6.046875l-2.09375 -5.65625l-2.0625 5.65625l4.15625 0zm7.3087463 -9.21875l5.625 0q1.90625 0 2.90625 0.296875q1.34375 0.390625 2.296875 1.40625q0.96875 1.0 1.46875 2.46875q0.5 1.453125 0.5 3.609375q0 1.875 -0.46875 3.25q-0.578125 1.65625 -1.640625 2.6875q-0.796875 0.78125 -2.15625 1.21875q-1.03125 0.328125 -2.734375 0.328125l-5.796875 0l0 -15.265625zm3.078125 2.578125l0 10.109375l2.296875 0q1.296875 0 1.875 -0.140625q0.75 -0.1875 1.234375 -0.625q0.5 -0.453125 0.8125 -1.484375q0.3125 -1.03125 0.3125 -2.796875q0 -1.765625 -0.3125 -2.703125q-0.3125 -0.953125 -0.875 -1.484375q-0.5625 -0.53125 -1.421875 -0.71875q-0.65625 -0.15625 -2.53125 -0.15625l-1.390625 0zm18.234406 12.6875l0 -15.265625l2.921875 0l0 15.265625l-2.921875 0zm16.066254 0l-2.71875 0l0 -1.625q-0.671875 0.953125 -1.59375 1.421875q-0.921875 0.453125 -1.859375 0.453125q-1.90625 0 -3.265625 -1.53125q-1.359375 -1.546875 -1.359375 -4.296875q0 -2.8125 1.3125 -4.265625q1.328125 -1.46875 3.359375 -1.46875q1.84375 0 3.203125 1.546875l0 -5.5l2.921875 0l0 15.265625zm-7.8125 -5.765625q0 1.765625 0.5 2.5625q0.703125 1.140625 1.96875 1.140625q1.015625 0 1.71875 -0.859375q0.71875 -0.859375 0.71875 -2.5625q0 -1.90625 -0.6875 -2.75q-0.6875 -0.84375 -1.765625 -0.84375q-1.046875 0 -1.75 0.828125q-0.703125 0.828125 -0.703125 2.484375zm13.496826 5.765625l-2.921875 0l0 -11.0625l2.71875 0l0 1.578125q0.703125 -1.125 1.25 -1.46875q0.5625 -0.359375 1.265625 -0.359375q1.0 0 1.9375 0.5625l-0.90625 2.546875q-0.75 -0.484375 -1.375 -0.484375q-0.625 0 -1.046875 0.34375q-0.421875 0.328125 -0.671875 1.21875q-0.25 0.890625 -0.25 3.703125l0 3.421875zm12.362579 0l-2.921875 0l0 -11.03125q-1.609375 1.5 -3.78125 2.21875l0 -2.65625q1.140625 -0.375 2.484375 -1.421875q1.34375 -1.046875 1.84375 -2.4375l2.375 0l0 15.328125zm4.9241943 -11.0625l2.71875 0l0 1.625q0.53125 -0.828125 1.4375 -1.34375q0.90625 -0.53125 2.015625 -0.53125q1.921875 0 3.265625 1.515625q1.34375 1.5 1.34375 4.203125q0 2.765625 -1.359375 4.3125q-1.34375 1.53125 -3.265625 1.53125q-0.921875 0 -1.671875 -0.359375q-0.734375 -0.375 -1.5625 -1.25l0 5.5625l-2.921875 0l0 -15.265625zm2.890625 5.34375q0 1.859375 0.734375 2.75q0.75 0.890625 1.8125 0.890625q1.015625 0 1.6875 -0.8125q0.6875 -0.8125 0.6875 -2.6875q0 -1.734375 -0.703125 -2.578125q-0.703125 -0.84375 -1.734375 -0.84375q-1.0625 0 -1.78125 0.828125q-0.703125 0.828125 -0.703125 2.453125zm10.215576 -6.84375l0 -2.703125l2.921875 0l0 2.703125l-2.921875 0zm0 12.5625l0 -11.0625l2.921875 0l0 11.0625l-2.921875 0zm15.988129 0l-2.921875 0l0 -5.640625q0 -1.796875 -0.1875 -2.3125q-0.1875 -0.53125 -0.609375 -0.828125q-0.421875 -0.296875 -1.015625 -0.296875q-0.765625 0 -1.375 0.421875q-0.59375 0.421875 -0.828125 1.109375q-0.21875 0.6875 -0.21875 2.53125l0 5.015625l-2.921875 0l0 -11.0625l2.71875 0l0 1.625q1.4375 -1.875 3.640625 -1.875q0.96875 0 1.765625 0.359375q0.8125 0.34375 1.21875 0.890625q0.40625 0.53125 0.5625 1.21875q0.171875 0.6875 0.171875 1.96875l0 6.875z" fill-rule="nonzero"/><path fill="#000000" fill-opacity="0.0" d="m291.96982 541.8504l59.149597 0l0 45.259827l-59.149597 0z" fill-rule="evenodd"/><path fill="#000000" d="m306.53232 571.3304l0 -6.421875l-5.59375 -8.84375l3.609375 0l3.59375 6.03125l3.515625 -6.03125l3.5625 0l-5.609375 8.859375l0 6.40625l-3.078125 0zm15.4236145 -3.515625l2.90625 0.484375q-0.546875 1.609375 -1.765625 2.453125q-1.21875 0.828125 -3.03125 0.828125q-2.890625 0 -4.28125 -1.890625q-1.09375 -1.5 -1.09375 -3.8125q0 -2.75 1.4375 -4.296875q1.4375 -1.5625 3.640625 -1.5625q2.46875 0 3.890625 1.640625q1.421875 1.625 1.359375 4.984375l-7.328125 0q0.03125 1.296875 0.703125 2.03125q0.6875 0.71875 1.703125 0.71875q0.6875 0 1.15625 -0.375q0.46875 -0.375 0.703125 -1.203125zm0.171875 -2.96875q-0.03125 -1.265625 -0.65625 -1.921875q-0.625 -0.671875 -1.53125 -0.671875q-0.953125 0 -1.578125 0.703125q-0.625 0.703125 -0.609375 1.890625l4.375 0zm4.2523193 3.328125l2.9375 -0.453125q0.1875 0.859375 0.75 1.3125q0.578125 0.4375 1.609375 0.4375q1.140625 0 1.71875 -0.421875q0.375 -0.296875 0.375 -0.78125q0 -0.328125 -0.203125 -0.546875q-0.21875 -0.21875 -0.984375 -0.390625q-3.53125 -0.78125 -4.484375 -1.421875q-1.3125 -0.90625 -1.3125 -2.5q0 -1.4375 1.125 -2.40625q1.140625 -0.984375 3.53125 -0.984375q2.265625 0 3.375 0.75q1.109375 0.734375 1.515625 2.171875l-2.75 0.515625q-0.1875 -0.640625 -0.6875 -0.984375q-0.484375 -0.34375 -1.40625 -0.34375q-1.15625 0 -1.65625 0.3125q-0.328125 0.234375 -0.328125 0.59375q0 0.3125 0.296875 0.53125q0.390625 0.296875 2.71875 0.828125q2.34375 0.53125 3.28125 1.296875q0.90625 0.78125 0.90625 2.1875q0 1.515625 -1.265625 2.609375q-1.265625 1.09375 -3.765625 1.09375q-2.25 0 -3.578125 -0.90625q-1.3125 -0.921875 -1.71875 -2.5z" fill-rule="nonzero"/><path fill="#cfe2f3" d="m175.35957 579.45667l212.39897 0l0 44.88977l-212.39897 0z" fill-rule="evenodd"/><path stroke="#000000" stroke-width="1.0" stroke-linejoin="round" stroke-linecap="butt" d="m175.35957 579.45667l212.39897 0l0 44.88977l-212.39897 0z" fill-rule="evenodd"/><path fill="#000000" d="m216.11557 609.3816l-3.34375 0l-1.328125 -3.46875l-6.109375 0l-1.265625 3.46875l-3.265625 0l5.953125 -15.265625l3.25 0l6.109375 15.265625zm-5.671875 -6.046875l-2.09375 -5.65625l-2.0625 5.65625l4.15625 0zm17.074371 0.4375l3.0 0.9375q-0.6875 2.5 -2.296875 3.71875q-1.59375 1.21875 -4.046875 1.21875q-3.046875 0 -5.0 -2.078125q-1.953125 -2.078125 -1.953125 -5.6875q0 -3.8125 1.96875 -5.921875q1.96875 -2.109375 5.171875 -2.109375q2.796875 0 4.546875 1.65625q1.046875 0.984375 1.5625 2.8125l-3.046875 0.734375q-0.28125 -1.1875 -1.140625 -1.875q-0.84375 -0.6875 -2.078125 -0.6875q-1.703125 0 -2.765625 1.21875q-1.046875 1.21875 -1.046875 3.9375q0 2.90625 1.03125 4.140625q1.046875 1.21875 2.71875 1.21875q1.234375 0 2.109375 -0.78125q0.890625 -0.78125 1.265625 -2.453125zm9.074371 5.609375l0 -12.6875l-4.53125 0l0 -2.578125l12.140625 0l0 2.578125l-4.515625 0l0 12.6875l-3.09375 0zm9.496826 0l0 -15.265625l3.09375 0l0 15.265625l-3.09375 0zm9.925659 0l-5.4687653 -15.265625l3.34375 0l3.8750153 11.296875l3.734375 -11.296875l3.265625 0l-5.46875 15.265625l-3.28125 0zm22.50174 0l-3.34375 0l-1.328125 -3.46875l-6.109375 0l-1.265625 3.46875l-3.265625 0l5.953125 -15.265625l3.25 0l6.109375 15.265625zm-5.671875 -6.046875l-2.09375 -5.65625l-2.0625 5.65625l4.15625 0zm9.162903 6.046875l0 -12.6875l-4.53125 0l0 -2.578125l12.140625 0l0 2.578125l-4.515625 0l0 12.6875l-3.09375 0zm9.590576 0l0 -15.265625l11.328125 0l0 2.578125l-8.234375 0l0 3.390625l7.65625 0l0 2.5625l-7.65625 0l0 4.15625l8.515625 0l0 2.578125l-11.609375 0zm20.245087 0l0 -15.140625l3.078125 0l0 12.5625l7.65625 0l0 2.578125l-10.734375 0zm12.918701 -12.5625l0 -2.703125l2.921875 0l0 2.703125l-2.921875 0zm0 12.5625l0 -11.0625l2.921875 0l0 11.0625l-2.921875 0zm5.660034 0.734375l3.34375 0.40625q0.078125 0.578125 0.375 0.796875q0.421875 0.3125 1.3125 0.3125q1.15625 0 1.71875 -0.34375q0.390625 -0.234375 0.59375 -0.734375q0.125 -0.375 0.125 -1.34375l0 -1.625q-1.3125 1.796875 -3.3125 1.796875q-2.21875 0 -3.53125 -1.890625q-1.015625 -1.484375 -1.015625 -3.703125q0 -2.78125 1.328125 -4.25q1.34375 -1.46875 3.34375 -1.46875q2.046875 0 3.375 1.796875l0 -1.546875l2.734375 0l0 9.921875q0 1.96875 -0.328125 2.9375q-0.3125 0.96875 -0.890625 1.515625q-0.578125 0.546875 -1.5625 0.859375q-0.96875 0.3125 -2.453125 0.3125q-2.8125 0 -4.0 -0.96875q-1.171875 -0.953125 -1.171875 -2.4375q0 -0.140625 0.015625 -0.34375zm2.609375 -6.5q0 1.765625 0.671875 2.59375q0.6875 0.8125 1.6875 0.8125q1.078125 0 1.8125 -0.84375q0.75 -0.84375 0.75 -2.484375q0 -1.71875 -0.71875 -2.546875q-0.703125 -0.84375 -1.78125 -0.84375q-1.0625 0 -1.75 0.828125q-0.671875 0.8125 -0.671875 2.484375zm13.606201 -9.5l0 5.609375q1.40625 -1.65625 3.375 -1.65625q1.015625 0 1.828125 0.375q0.8125 0.375 1.21875 0.96875q0.40625 0.578125 0.5625 1.28125q0.15625 0.703125 0.15625 2.203125l0 6.484375l-2.921875 0l0 -5.84375q0 -1.734375 -0.171875 -2.203125q-0.171875 -0.46875 -0.59375 -0.75q-0.421875 -0.28125 -1.046875 -0.28125q-0.734375 0 -1.3125 0.359375q-0.5625 0.359375 -0.828125 1.078125q-0.265625 0.703125 -0.265625 2.09375l0 5.546875l-2.9375 0l0 -15.265625l2.9375 0zm15.184326 4.203125l0 2.328125l-2.0 0l0 4.46875q0 1.34375 0.046875 1.578125q0.0625 0.21875 0.265625 0.375q0.203125 0.140625 0.5 0.140625q0.40625 0 1.171875 -0.28125l0.25 2.265625q-1.015625 0.4375 -2.3125 0.4375q-0.796875 0 -1.4375 -0.265625q-0.625 -0.265625 -0.921875 -0.6875q-0.296875 -0.421875 -0.40625 -1.140625q-0.09375 -0.515625 -0.09375 -2.0625l0 -4.828125l-1.34375 0l0 -2.328125l1.34375 0l0 -2.1875l2.9375 -1.71875l0 3.90625l2.0 0z" fill-rule="nonzero"/><path fill="#000000" fill-opacity="0.0" d="m281.55905 549.50397l0 29.952698" fill-rule="evenodd"/><path stroke="#000000" stroke-width="1.0" stroke-linejoin="round" stroke-linecap="butt" d="m281.55905 549.50397l0 23.952698" fill-rule="evenodd"/><path fill="#000000" stroke="#000000" stroke-width="1.0" stroke-linecap="butt" d="m279.90732 573.45667l1.6517334 4.538147l1.6517334 -4.538147z" fill-rule="evenodd"/><path fill="#cfe2f3" d="m482.4935 468.19028l225.04727 0l0 44.8898l-225.04727 0z" fill-rule="evenodd"/><path stroke="#000000" stroke-width="1.0" stroke-linejoin="round" stroke-linecap="butt" d="m482.4935 468.19028l225.04727 0l0 44.8898l-225.04727 0z" fill-rule="evenodd"/><path fill="#000000" d="m500.99393 482.84955l5.625 0q1.90625 0 2.90625 0.296875q1.34375 0.390625 2.296875 1.40625q0.9687195 1.0 1.4687195 2.46875q0.5 1.453125 0.5 3.609375q0 1.875 -0.46875 3.25q-0.578125 1.65625 -1.6405945 2.6875q-0.796875 0.78125 -2.15625 1.21875q-1.03125 0.328125 -2.734375 0.328125l-5.796875 0l0 -15.265625zm3.078125 2.578125l0 10.109375l2.296875 0q1.296875 0 1.875 -0.140625q0.75 -0.1875 1.234375 -0.625q0.5 -0.453125 0.8125 -1.484375q0.3125 -1.03125 0.3125 -2.796875q0 -1.765625 -0.3125 -2.703125q-0.3125 -0.953125 -0.875 -1.484375q-0.5625 -0.53125 -1.421875 -0.71875q-0.65625 -0.15625 -2.53125 -0.15625l-1.390625 0zm12.324371 12.6875l0 -15.265625l11.328125 0l0 2.578125l-8.234375 0l0 3.390625l7.65625 0l0 2.5625l-7.65625 0l0 4.15625l8.515625 0l0 2.578125l-11.609375 0zm27.991333 0l-3.34375 0l-1.328125 -3.46875l-6.109375 0l-1.265625 3.46875l-3.265625 0l5.953125 -15.265625l3.25 0l6.109375 15.265625zm-5.671875 -6.046875l-2.09375 -5.65625l-2.0625 5.65625l4.15625 0zm17.07434 0.4375l3.0 0.9375q-0.6875 2.5 -2.296875 3.71875q-1.59375 1.21875 -4.046875 1.21875q-3.046875 0 -5.0 -2.078125q-1.953125 -2.078125 -1.953125 -5.6875q0 -3.8125 1.96875 -5.921875q1.96875 -2.109375 5.171875 -2.109375q2.796875 0 4.546875 1.65625q1.046875 0.984375 1.5625 2.8125l-3.046875 0.734375q-0.28125 -1.1875 -1.140625 -1.875q-0.84375 -0.6875 -2.078125 -0.6875q-1.703125 0 -2.765625 1.21875q-1.046875 1.21875 -1.046875 3.9375q0 2.90625 1.03125 4.140625q1.046875 1.21875 2.71875 1.21875q1.234375 0 2.109375 -0.78125q0.890625 -0.78125 1.265625 -2.453125zm9.074402 5.609375l0 -12.6875l-4.53125 0l0 -2.578125l12.140625 0l0 2.578125l-4.515625 0l0 12.6875l-3.09375 0zm9.496826 0l0 -15.265625l3.09375 0l0 15.265625l-3.09375 0zm9.925598 0l-5.46875 -15.265625l3.34375 0l3.875 11.296875l3.734375 -11.296875l3.265625 0l-5.46875 15.265625l-3.28125 0zm22.50177 0l-3.34375 0l-1.328125 -3.46875l-6.109375 0l-1.265625 3.46875l-3.265625 0l5.953125 -15.265625l3.25 0l6.109375 15.265625zm-5.671875 -6.046875l-2.09375 -5.65625l-2.0625 5.65625l4.15625 0zm9.162903 6.046875l0 -12.6875l-4.53125 0l0 -2.578125l12.140625 0l0 2.578125l-4.515625 0l0 12.6875l-3.09375 0zm9.590576 0l0 -15.265625l11.328125 0l0 2.578125l-8.234375 0l0 3.390625l7.65625 0l0 2.5625l-7.65625 0l0 4.15625l8.515625 0l0 2.578125l-11.609375 0zm20.245117 0l0 -15.140625l3.078125 0l0 12.5625l7.65625 0l0 2.578125l-10.734375 0zm12.918701 -12.5625l0 -2.703125l2.921875 0l0 2.703125l-2.921875 0zm0 12.5625l0 -11.0625l2.921875 0l0 11.0625l-2.921875 0zm5.660034 0.734375l3.34375 0.40625q0.078125 0.578125 0.375 0.796875q0.421875 0.3125 1.3125 0.3125q1.15625 0 1.71875 -0.34375q0.390625 -0.234375 0.59375 -0.734375q0.125 -0.375 0.125 -1.34375l0 -1.625q-1.3125 1.796875 -3.3125 1.796875q-2.21875 0 -3.53125 -1.890625q-1.015625 -1.484375 -1.015625 -3.703125q0 -2.78125 1.328125 -4.25q1.34375 -1.46875 3.34375 -1.46875q2.046875 0 3.375 1.796875l0 -1.546875l2.734375 0l0 9.921875q0 1.96875 -0.328125 2.9375q-0.3125 0.96875 -0.890625 1.515625q-0.578125 0.546875 -1.5625 0.859375q-0.96875 0.3125 -2.453125 0.3125q-2.8125 0 -4.0 -0.96875q-1.171875 -0.953125 -1.171875 -2.4375q0 -0.140625 0.015625 -0.34375zm2.609375 -6.5q0 1.765625 0.671875 2.59375q0.6875 0.8125 1.6875 0.8125q1.078125 0 1.8125 -0.84375q0.75 -0.84375 0.75 -2.484375q0 -1.71875 -0.71875 -2.546875q-0.703125 -0.84375 -1.78125 -0.84375q-1.0625 0 -1.75 0.828125q-0.671875 0.8125 -0.671875 2.484375zm13.606201 -9.5l0 5.609375q1.40625 -1.65625 3.375 -1.65625q1.015625 0 1.828125 0.375q0.8125 0.375 1.21875 0.96875q0.40625 0.578125 0.5625 1.28125q0.15625 0.703125 0.15625 2.203125l0 6.484375l-2.921875 0l0 -5.84375q0 -1.734375 -0.171875 -2.203125q-0.171875 -0.46875 -0.59375 -0.75q-0.421875 -0.28125 -1.046875 -0.28125q-0.734375 0 -1.3125 0.359375q-0.5625 0.359375 -0.828125 1.078125q-0.265625 0.703125 -0.265625 2.09375l0 5.546875l-2.9375 0l0 -15.265625l2.9375 0zm15.184326 4.203125l0 2.328125l-2.0 0l0 4.46875q0 1.34375 0.046875 1.578125q0.0625 0.21875 0.265625 0.375q0.203125 0.140625 0.5 0.140625q0.40625 0 1.171875 -0.28125l0.25 2.265625q-1.015625 0.4375 -2.3125 0.4375q-0.796875 0 -1.4375 -0.265625q-0.625 -0.265625 -0.921875 -0.6875q-0.296875 -0.421875 -0.40625 -1.140625q-0.09375 -0.515625 -0.09375 -2.0625l0 -4.828125l-1.34375 0l0 -2.328125l1.34375 0l0 -2.1875l2.9375 -1.71875l0 3.90625l2.0 0z" fill-rule="nonzero"/><path fill="#000000" fill-opacity="0.0" d="m416.97638 449.7047l59.149597 0l0 45.259857l-59.149597 0z" fill-rule="evenodd"/><path fill="#000000" d="m427.5545 479.18472l0 -15.265625l3.0 0l6.25 10.1875l0 -10.1875l2.859375 0l0 15.265625l-3.078125 0l-6.15625 -9.953125l0 9.953125l-2.875 0zm14.683746 -5.6875q0 -1.453125 0.71875 -2.8125q0.71875 -1.375 2.03125 -2.09375q1.3125 -0.71875 2.9375 -0.71875q2.515625 0 4.109375 1.640625q1.609375 1.625 1.609375 4.109375q0 2.515625 -1.625 4.171875q-1.609375 1.640625 -4.0625 1.640625q-1.53125 0 -2.90625 -0.6875q-1.375 -0.6875 -2.09375 -2.015625q-0.71875 -1.328125 -0.71875 -3.234375zm3.0 0.15625q0 1.640625 0.78125 2.515625q0.78125 0.875 1.921875 0.875q1.140625 0 1.921875 -0.875q0.78125 -0.875 0.78125 -2.53125q0 -1.625 -0.78125 -2.5q-0.78125 -0.875 -1.921875 -0.875q-1.140625 0 -1.921875 0.875q-0.78125 0.875 -0.78125 2.515625z" fill-rule="nonzero"/><path fill="#000000" fill-opacity="0.0" d="m281.55652 178.26772l0 29.952759" fill-rule="evenodd"/><path stroke="#000000" stroke-width="1.0" stroke-linejoin="round" stroke-linecap="butt" d="m281.55652 178.26772l0 23.952759" fill-rule="evenodd"/><path fill="#000000" stroke="#000000" stroke-width="1.0" stroke-linecap="butt" d="m279.9048 202.22047l1.6517334 4.538101l1.6517334 -4.538101z" fill-rule="evenodd"/><path fill="#cfe2f3" d="m234.37401 59.062992l94.36369 0l0 0c12.361908 0 22.383179 10.381351 22.383179 23.187405c0 12.806046 -10.021271 23.1874 -22.383179 23.1874l-94.36369 0l0 0c-12.361893 0 -22.383194 -10.381355 -22.383194 -23.1874c0 -12.806053 10.021301 -23.187405 22.383194 -23.187405z" fill-rule="evenodd"/><path stroke="#000000" stroke-width="1.0" stroke-linejoin="round" stroke-linecap="butt" d="m234.37401 59.062992l94.36369 0l0 0c12.361908 0 22.383179 10.381351 22.383179 23.187405c0 12.806046 -10.021271 23.1874 -22.383179 23.1874l-94.36369 0l0 0c-12.361893 0 -22.383194 -10.381355 -22.383194 -23.1874c0 -12.806053 10.021301 -23.187405 22.383194 -23.187405z" fill-rule="evenodd"/><path fill="#000000" d="m230.57147 86.517265l4.5 -0.4375q0.40625 2.265625 1.640625 3.328125q1.25 1.0625 3.359375 1.0625q2.234375 0 3.359375 -0.9375q1.140625 -0.953125 1.140625 -2.21875q0 -0.8125 -0.484375 -1.375q-0.46875 -0.578125 -1.65625 -1.0q-0.8125 -0.28125 -3.703125 -1.0q-3.71875 -0.921875 -5.21875 -2.265625q-2.109375 -1.890625 -2.109375 -4.609375q0 -1.75 0.984375 -3.265625q1.0 -1.53125 2.859375 -2.328125q1.875 -0.796875 4.515625 -0.796875q4.3125 0 6.484375 1.890625q2.1875 1.890625 2.296875 5.046875l-4.625 0.203125q-0.296875 -1.765625 -1.28125 -2.53125q-0.96875 -0.78125 -2.921875 -0.78125q-2.015625 0 -3.15625 0.828125q-0.734375 0.53125 -0.734375 1.421875q0 0.8125 0.6875 1.390625q0.875 0.734375 4.25 1.53125q3.375 0.796875 4.984375 1.65625q1.625 0.84375 2.53125 2.328125q0.921875 1.46875 0.921875 3.640625q0 1.96875 -1.09375 3.6875q-1.09375 1.71875 -3.09375 2.5625q-2.0 0.828125 -4.984375 0.828125q-4.34375 0 -6.671875 -2.0q-2.328125 -2.015625 -2.78125 -5.859375zm27.671875 7.453125l0 -19.03125l-6.796875 0l0 -3.875l18.203125 0l0 3.875l-6.78125 0l0 19.03125l-4.625 0zm32.671875 0l-5.03125 0l-2.0 -5.203125l-9.15625 0l-1.890625 5.203125l-4.90625 0l8.921875 -22.90625l4.890625 0l9.171875 22.90625zm-8.515625 -9.0625l-3.15625 -8.5l-3.09375 8.5l6.25 0zm10.984375 9.0625l0 -22.90625l9.734375 0q3.671875 0 5.328125 0.625q1.671875 0.609375 2.671875 2.1875q1.0 1.578125 1.0 3.609375q0 2.578125 -1.515625 4.265625q-1.515625 1.671875 -4.53125 2.109375q1.5 0.875 2.46875 1.921875q0.984375 1.046875 2.640625 3.71875l2.796875 4.46875l-5.53125 0l-3.34375 -4.984375q-1.78125 -2.671875 -2.4375 -3.359375q-0.65625 -0.703125 -1.390625 -0.953125q-0.734375 -0.265625 -2.328125 -0.265625l-0.9375 0l0 9.5625l-4.625 0zm4.625 -13.21875l3.421875 0q3.328125 0 4.15625 -0.28125q0.828125 -0.28125 1.296875 -0.96875q0.46875 -0.6875 0.46875 -1.71875q0 -1.15625 -0.625 -1.859375q-0.609375 -0.71875 -1.734375 -0.90625q-0.5625 -0.078125 -3.375 -0.078125l-3.609375 0l0 5.8125zm23.625 13.21875l0 -19.03125l-6.796875 0l0 -3.875l18.203125 0l0 3.875l-6.78125 0l0 19.03125l-4.625 0z" fill-rule="nonzero"/><path fill="#cfe2f3" d="m234.37663 654.3123l94.36369 0l0 0c12.361908 0 22.383179 10.381348 22.383179 23.187439c0 12.80603 -10.021271 23.187378 -22.383179 23.187378l-94.36369 0l0 0c-12.361893 0 -22.383194 -10.381348 -22.383194 -23.187378c0 -12.806091 10.021301 -23.187439 22.383194 -23.187439z" fill-rule="evenodd"/><path stroke="#000000" stroke-width="1.0" stroke-linejoin="round" stroke-linecap="butt" d="m234.37663 654.3123l94.36369 0l0 0c12.361908 0 22.383179 10.381348 22.383179 23.187439c0 12.80603 -10.021271 23.187378 -22.383179 23.187378l-94.36369 0l0 0c-12.361893 0 -22.383194 -10.381348 -22.383194 -23.187378c0 -12.806091 10.021301 -23.187439 22.383194 -23.187439z" fill-rule="evenodd"/><path fill="#000000" d="m250.10535 689.2197l0 -22.90625l16.984375 0l0 3.875l-12.359375 0l0 5.078125l11.5 0l0 3.859375l-11.5 0l0 6.234375l12.796875 0l0 3.859375l-17.421875 0zm21.390625 0l0 -22.90625l4.5 0l9.375 15.296875l0 -15.296875l4.296875 0l0 22.90625l-4.640625 0l-9.234375 -14.9375l0 14.9375l-4.296875 0zm23.046875 -22.90625l8.453125 0q2.859375 0 4.359375 0.4375q2.015625 0.59375 3.453125 2.109375q1.4375 1.515625 2.1875 3.71875q0.75 2.1875 0.75 5.40625q0 2.828125 -0.703125 4.875q-0.859375 2.5 -2.453125 4.046875q-1.203125 1.171875 -3.25 1.828125q-1.53125 0.484375 -4.09375 0.484375l-8.703125 0l0 -22.90625zm4.625 3.875l0 15.171875l3.453125 0q1.9375 0 2.796875 -0.21875q1.125 -0.28125 1.859375 -0.953125q0.75 -0.671875 1.21875 -2.203125q0.46875 -1.546875 0.46875 -4.203125q0 -2.65625 -0.46875 -4.078125q-0.46875 -1.421875 -1.3125 -2.21875q-0.84375 -0.796875 -2.140625 -1.078125q-0.96875 -0.21875 -3.796875 -0.21875l-2.078125 0z" fill-rule="nonzero"/><path fill="#000000" fill-opacity="0.0" d="m281.55585 105.4378l0 27.937004" fill-rule="evenodd"/><path stroke="#000000" stroke-width="1.0" stroke-linejoin="round" stroke-linecap="butt" d="m281.55585 105.4378l0 21.937004" fill-rule="evenodd"/><path fill="#000000" stroke="#000000" stroke-width="1.0" stroke-linecap="butt" d="m279.9041 127.3748l1.6517334 4.538101l1.6517334 -4.538101z" fill-rule="evenodd"/><path fill="#000000" fill-opacity="0.0" d="m281.55905 624.34644l0 29.952759" fill-rule="evenodd"/><path stroke="#000000" stroke-width="1.0" stroke-linejoin="round" stroke-linecap="butt" d="m281.55905 624.34644l0 23.952759" fill-rule="evenodd"/><path fill="#000000" stroke="#000000" stroke-width="1.0" stroke-linecap="butt" d="m279.90732 648.2992l1.6517334 4.538086l1.6517334 -4.538086z" fill-rule="evenodd"/><path fill="#cfe2f3" d="m36.198162 283.08136l490.71652 0l0 44.88977l-490.71652 0z" fill-rule="evenodd"/><path stroke="#000000" stroke-width="1.0" stroke-linejoin="round" stroke-linecap="butt" d="m36.198162 283.08136l490.71652 0l0 44.88977l-490.71652 0z" fill-rule="evenodd"/><path fill="#000000" d="m167.82408 313.00626l0 -15.265625l2.921875 0l0 15.265625l-2.921875 0zm16.066269 0l-2.71875 0l0 -1.625q-0.671875 0.953125 -1.59375 1.421875q-0.921875 0.453125 -1.859375 0.453125q-1.90625 0 -3.265625 -1.53125q-1.359375 -1.546875 -1.359375 -4.296875q0 -2.8125 1.3125 -4.265625q1.328125 -1.46875 3.359375 -1.46875q1.84375 0 3.203125 1.546875l0 -5.5l2.921875 0l0 15.265625zm-7.8125 -5.765625q0 1.765625 0.5 2.5625q0.703125 1.140625 1.96875 1.140625q1.015625 0 1.71875 -0.859375q0.71875 -0.859375 0.71875 -2.5625q0 -1.90625 -0.6875 -2.75q-0.6875 -0.84375 -1.765625 -0.84375q-1.046875 0 -1.75 0.828125q-0.703125 0.828125 -0.703125 2.484375zm13.496826 5.765625l-2.921875 0l0 -11.0625l2.71875 0l0 1.578125q0.703125 -1.125 1.25 -1.46875q0.5625 -0.359375 1.265625 -0.359375q1.0 0 1.9375 0.5625l-0.90625 2.546875q-0.75 -0.484375 -1.375 -0.484375q-0.625 0 -1.046875 0.34375q-0.421875 0.328125 -0.671875 1.21875q-0.25 0.890625 -0.25 3.703125l0 3.421875zm14.753189 -2.71875l0 2.71875l-10.25 0q0.171875 -1.546875 1.0 -2.921875q0.828125 -1.375 3.296875 -3.65625q1.96875 -1.84375 2.421875 -2.5q0.609375 -0.90625 0.609375 -1.796875q0 -0.96875 -0.53125 -1.5q-0.53125 -0.53125 -1.453125 -0.53125q-0.921875 0 -1.46875 0.5625q-0.53125 0.546875 -0.609375 1.828125l-2.921875 -0.296875q0.265625 -2.40625 1.640625 -3.453125q1.375 -1.0625 3.4375 -1.0625q2.25 0 3.53125 1.21875q1.296875 1.21875 1.296875 3.03125q0 1.03125 -0.375 1.96875q-0.359375 0.921875 -1.15625 1.9375q-0.53125 0.6875 -1.921875 1.953125q-1.375 1.265625 -1.75 1.6875q-0.375 0.421875 -0.59375 0.8125l5.796875 0zm5.6585693 2.71875l-4.46875 -11.0625l3.078125 0l2.078125 5.640625l0.609375 1.890625q0.234375 -0.71875 0.296875 -0.953125q0.15625 -0.46875 0.3125 -0.9375l2.109375 -5.640625l3.0 0l-4.390625 11.0625l-2.625 0zm11.002319 -7.6875l-2.65625 -0.484375q0.453125 -1.59375 1.546875 -2.359375q1.09375 -0.78125 3.25 -0.78125q1.953125 0 2.90625 0.46875q0.96875 0.453125 1.359375 1.171875q0.390625 0.71875 0.390625 2.625l-0.03125 3.40625q0 1.46875 0.125 2.15625q0.140625 0.6875 0.53125 1.484375l-2.890625 0q-0.109375 -0.296875 -0.28125 -0.859375q-0.078125 -0.265625 -0.109375 -0.34375q-0.75 0.71875 -1.609375 1.09375q-0.84375 0.359375 -1.8125 0.359375q-1.703125 0 -2.6875 -0.921875q-0.984375 -0.9375 -0.984375 -2.34375q0 -0.9375 0.4375 -1.671875q0.453125 -0.734375 1.25 -1.125q0.8125 -0.390625 2.34375 -0.6875q2.046875 -0.390625 2.84375 -0.71875l0 -0.296875q0 -0.84375 -0.421875 -1.203125q-0.421875 -0.359375 -1.578125 -0.359375q-0.78125 0 -1.21875 0.3125q-0.4375 0.3125 -0.703125 1.078125zm3.921875 2.375q-0.5625 0.1875 -1.78125 0.453125q-1.21875 0.25 -1.59375 0.5q-0.578125 0.40625 -0.578125 1.03125q0 0.625 0.453125 1.078125q0.46875 0.4375 1.171875 0.4375q0.796875 0 1.515625 -0.515625q0.53125 -0.40625 0.6875 -0.96875q0.125 -0.375 0.125 -1.4375l0 -0.578125zm5.7523193 5.3125l0 -15.265625l2.921875 0l0 15.265625l-2.921875 0zm11.210663 -8.5l0 -2.6875l10.671875 0l0 2.6875l-10.671875 0zm0 4.625l0 -2.703125l10.671875 0l0 2.703125l-10.671875 0zm19.05281 3.875l0 -15.265625l6.484375 0q2.453125 0 3.5625 0.421875q1.109375 0.40625 1.765625 1.453125q0.671875 1.046875 0.671875 2.40625q0 1.71875 -1.015625 2.84375q-1.0 1.109375 -3.015625 1.40625q1.0 0.578125 1.640625 1.28125q0.65625 0.6875 1.765625 2.46875l1.859375 2.984375l-3.6875 0l-2.21875 -3.328125q-1.1875 -1.78125 -1.625 -2.234375q-0.4375 -0.46875 -0.9375 -0.640625q-0.484375 -0.171875 -1.546875 -0.171875l-0.625 0l0 6.375l-3.078125 0zm3.078125 -8.8125l2.28125 0q2.21875 0 2.765625 -0.1875q0.5625 -0.1875 0.875 -0.640625q0.3125 -0.46875 0.3125 -1.140625q0 -0.78125 -0.421875 -1.25q-0.40625 -0.46875 -1.15625 -0.59375q-0.375 -0.0625 -2.25 -0.0625l-2.40625 0l0 3.875zm12.308746 8.8125l0 -15.265625l11.328125 0l0 2.578125l-8.234375 0l0 3.390625l7.65625 0l0 2.5625l-7.65625 0l0 4.15625l8.515625 0l0 2.578125l-11.609375 0zm27.991302 0l-3.34375 0l-1.328125 -3.46875l-6.109375 0l-1.265625 3.46875l-3.265625 0l5.953125 -15.265625l3.25 0l6.109375 15.265625zm-5.671875 -6.046875l-2.09375 -5.65625l-2.0625 5.65625l4.15625 0zm7.3087463 -9.21875l5.625 0q1.90625 0 2.90625 0.296875q1.34375 0.390625 2.296875 1.40625q0.96875 1.0 1.46875 2.46875q0.5 1.453125 0.5 3.609375q0 1.875 -0.46875 3.25q-0.578125 1.65625 -1.640625 2.6875q-0.796875 0.78125 -2.15625 1.21875q-1.03125 0.328125 -2.734375 0.328125l-5.796875 0l0 -15.265625zm3.078125 2.578125l0 10.109375l2.296875 0q1.296875 0 1.875 -0.140625q0.75 -0.1875 1.234375 -0.625q0.5 -0.453125 0.8125 -1.484375q0.3125 -1.03125 0.3125 -2.796875q0 -1.765625 -0.3125 -2.703125q-0.3125 -0.953125 -0.875 -1.484375q-0.5625 -0.53125 -1.421875 -0.71875q-0.65625 -0.15625 -2.53125 -0.15625l-1.390625 0zm18.234406 12.6875l0 -15.265625l2.921875 0l0 15.265625l-2.921875 0zm16.066254 0l-2.71875 0l0 -1.625q-0.671875 0.953125 -1.59375 1.421875q-0.921875 0.453125 -1.859375 0.453125q-1.90625 0 -3.265625 -1.53125q-1.359375 -1.546875 -1.359375 -4.296875q0 -2.8125 1.3125 -4.265625q1.328125 -1.46875 3.359375 -1.46875q1.84375 0 3.203125 1.546875l0 -5.5l2.921875 0l0 15.265625zm-7.8125 -5.765625q0 1.765625 0.5 2.5625q0.703125 1.140625 1.96875 1.140625q1.015625 0 1.71875 -0.859375q0.71875 -0.859375 0.71875 -2.5625q0 -1.90625 -0.6875 -2.75q-0.6875 -0.84375 -1.765625 -0.84375q-1.046875 0 -1.75 0.828125q-0.703125 0.828125 -0.703125 2.484375zm13.496826 5.765625l-2.921875 0l0 -11.0625l2.71875 0l0 1.578125q0.703125 -1.125 1.25 -1.46875q0.5625 -0.359375 1.265625 -0.359375q1.0 0 1.9375 0.5625l-0.90625 2.546875q-0.75 -0.484375 -1.375 -0.484375q-0.625 0 -1.046875 0.34375q-0.421875 0.328125 -0.671875 1.21875q-0.25 0.890625 -0.25 3.703125l0 3.421875zm14.753204 -2.71875l0 2.71875l-10.25 0q0.171875 -1.546875 1.0 -2.921875q0.828125 -1.375 3.296875 -3.65625q1.96875 -1.84375 2.421875 -2.5q0.609375 -0.90625 0.609375 -1.796875q0 -0.96875 -0.53125 -1.5q-0.53125 -0.53125 -1.453125 -0.53125q-0.921875 0 -1.46875 0.5625q-0.53125 0.546875 -0.609375 1.828125l-2.921875 -0.296875q0.265625 -2.40625 1.640625 -3.453125q1.375 -1.0625 3.4375 -1.0625q2.25 0 3.53125 1.21875q1.296875 1.21875 1.296875 3.03125q0 1.03125 -0.375 1.96875q-0.359375 0.921875 -1.15625 1.9375q-0.53125 0.6875 -1.921875 1.953125q-1.375 1.265625 -1.75 1.6875q-0.375 0.421875 -0.59375 0.8125l5.796875 0zm2.5335693 -8.34375l2.71875 0l0 1.625q0.53125 -0.828125 1.4375 -1.34375q0.90625 -0.53125 2.015625 -0.53125q1.921875 0 3.265625 1.515625q1.34375 1.5 1.34375 4.203125q0 2.765625 -1.359375 4.3125q-1.34375 1.53125 -3.265625 1.53125q-0.921875 0 -1.671875 -0.359375q-0.734375 -0.375 -1.5625 -1.25l0 5.5625l-2.921875 0l0 -15.265625zm2.890625 5.34375q0 1.859375 0.734375 2.75q0.75 0.890625 1.8125 0.890625q1.015625 0 1.6875 -0.8125q0.6875 -0.8125 0.6875 -2.6875q0 -1.734375 -0.703125 -2.578125q-0.703125 -0.84375 -1.734375 -0.84375q-1.0625 0 -1.78125 0.828125q-0.703125 0.828125 -0.703125 2.453125zm10.215576 -6.84375l0 -2.703125l2.921875 0l0 2.703125l-2.921875 0zm0 12.5625l0 -11.0625l2.921875 0l0 11.0625l-2.921875 0zm15.988129 0l-2.921875 0l0 -5.640625q0 -1.796875 -0.1875 -2.3125q-0.1875 -0.53125 -0.609375 -0.828125q-0.421875 -0.296875 -1.015625 -0.296875q-0.765625 0 -1.375 0.421875q-0.59375 0.421875 -0.828125 1.109375q-0.21875 0.6875 -0.21875 2.53125l0 5.015625l-2.921875 0l0 -11.0625l2.71875 0l0 1.625q1.4375 -1.875 3.640625 -1.875q0.96875 0 1.765625 0.359375q0.8125 0.34375 1.21875 0.890625q0.40625 0.53125 0.5625 1.21875q0.171875 0.6875 0.171875 1.96875l0 6.875z" fill-rule="nonzero"/><path fill="#000000" fill-opacity="0.0" d="m281.55643 253.11942l0 29.952759" fill-rule="evenodd"/><path stroke="#000000" stroke-width="1.0" stroke-linejoin="round" stroke-linecap="butt" d="m281.55643 253.11942l0 23.952759" fill-rule="evenodd"/><path fill="#000000" stroke="#000000" stroke-width="1.0" stroke-linecap="butt" d="m279.9047 277.07217l1.6517334 4.5381165l1.6517334 -4.5381165z" fill-rule="evenodd"/><path fill="#cfe2f3" d="m36.198162 356.9239l490.71652 0l0 44.88977l-490.71652 0z" fill-rule="evenodd"/><path stroke="#000000" stroke-width="1.0" stroke-linejoin="round" stroke-linecap="butt" d="m36.198162 356.9239l490.71652 0l0 44.88977l-490.71652 0z" fill-rule="evenodd"/><path fill="#000000" d="m134.71762 386.84875l0 -15.265625l2.921875 0l0 15.265625l-2.921875 0zm16.066269 0l-2.71875 0l0 -1.625q-0.671875 0.953125 -1.59375 1.421875q-0.921875 0.453125 -1.859375 0.453125q-1.90625 0 -3.265625 -1.53125q-1.359375 -1.546875 -1.359375 -4.296875q0 -2.8125 1.3125 -4.265625q1.328125 -1.46875 3.359375 -1.46875q1.84375 0 3.203125 1.546875l0 -5.5l2.921875 0l0 15.265625zm-7.8125 -5.765625q0 1.765625 0.5 2.5625q0.703125 1.140625 1.96875 1.140625q1.015625 0 1.71875 -0.859375q0.71875 -0.859375 0.71875 -2.5625q0 -1.90625 -0.6875 -2.75q-0.6875 -0.84375 -1.765625 -0.84375q-1.046875 0 -1.75 0.828125q-0.703125 0.828125 -0.703125 2.484375zm13.496826 5.765625l-2.921875 0l0 -11.0625l2.71875 0l0 1.578125q0.703125 -1.125 1.25 -1.46875q0.5625 -0.359375 1.265625 -0.359375q1.0 0 1.9375 0.5625l-0.90625 2.546875q-0.75 -0.484375 -1.375 -0.484375q-0.625 0 -1.046875 0.34375q-0.421875 0.328125 -0.671875 1.21875q-0.25 0.890625 -0.25 3.703125l0 3.421875zm19.28444 0l-3.34375 0l-1.328125 -3.46875l-6.109375 0l-1.265625 3.46875l-3.265625 0l5.953125 -15.265625l3.25 0l6.109375 15.265625zm-5.671875 -6.046875l-2.09375 -5.65625l-2.0625 5.65625l4.15625 0zm9.548325 6.046875l-4.46875 -11.0625l3.078125 0l2.078125 5.640625l0.609375 1.890625q0.234375 -0.71875 0.296875 -0.953125q0.15625 -0.46875 0.3125 -0.9375l2.109375 -5.640625l3.0 0l-4.390625 11.0625l-2.625 0zm8.549194 0.734375l3.34375 0.40625q0.078125 0.578125 0.375 0.796875q0.421875 0.3125 1.3125 0.3125q1.15625 0 1.71875 -0.34375q0.390625 -0.234375 0.59375 -0.734375q0.125 -0.375 0.125 -1.34375l0 -1.625q-1.3125 1.796875 -3.3125 1.796875q-2.21875 0 -3.53125 -1.890625q-1.015625 -1.484375 -1.015625 -3.703125q0 -2.78125 1.328125 -4.25q1.34375 -1.46875 3.34375 -1.46875q2.046875 0 3.375 1.796875l0 -1.546875l2.734375 0l0 9.921875q0 1.96875 -0.328125 2.9375q-0.3125 0.96875 -0.890625 1.515625q-0.578125 0.546875 -1.5625 0.859375q-0.96875 0.3125 -2.453125 0.3125q-2.8125 0 -4.0 -0.96875q-1.171875 -0.953125 -1.171875 -2.4375q0 -0.140625 0.015625 -0.34375zm2.609375 -6.5q0 1.765625 0.671875 2.59375q0.6875 0.8125 1.6875 0.8125q1.078125 0 1.8125 -0.84375q0.75 -0.84375 0.75 -2.484375q0 -1.71875 -0.71875 -2.546875q-0.703125 -0.84375 -1.78125 -0.84375q-1.0625 0 -1.75 0.828125q-0.671875 0.8125 -0.671875 2.484375zm15.969345 -2.734375l0 -2.6875l10.671875 0l0 2.6875l-10.671875 0zm0 4.625l0 -2.703125l10.671875 0l0 2.703125l-10.671875 0zm23.880936 8.359375l-2.015625 0q-1.59375 -2.40625 -2.4375 -5.0q-0.828125 -2.59375 -0.828125 -5.015625q0 -3.015625 1.03125 -5.6875q0.90625 -2.34375 2.28125 -4.3125l2.0 0q-1.4375 3.15625 -1.96875 5.375q-0.53125 2.203125 -0.53125 4.6875q0 1.703125 0.3125 3.5q0.3125 1.796875 0.875 3.40625q0.359375 1.0625 1.28125 3.046875zm2.2430573 -4.484375l0 -15.265625l2.921875 0l0 15.265625l-2.921875 0zm16.066269 0l-2.71875 0l0 -1.625q-0.671875 0.953125 -1.59375 1.421875q-0.921875 0.453125 -1.859375 0.453125q-1.90625 0 -3.265625 -1.53125q-1.359375 -1.546875 -1.359375 -4.296875q0 -2.8125 1.3125 -4.265625q1.328125 -1.46875 3.359375 -1.46875q1.84375 0 3.203125 1.546875l0 -5.5l2.921875 0l0 15.265625zm-7.8125 -5.765625q0 1.765625 0.5 2.5625q0.703125 1.140625 1.96875 1.140625q1.015625 0 1.71875 -0.859375q0.71875 -0.859375 0.71875 -2.5625q0 -1.90625 -0.6875 -2.75q-0.6875 -0.84375 -1.765625 -0.84375q-1.046875 0 -1.75 0.828125q-0.703125 0.828125 -0.703125 2.484375zm13.496826 5.765625l-2.921875 0l0 -11.0625l2.71875 0l0 1.578125q0.703125 -1.125 1.25 -1.46875q0.56248474 -0.359375 1.2656097 -0.359375q1.0 0 1.9375 0.5625l-0.90625 2.546875q-0.75 -0.484375 -1.375 -0.484375q-0.62498474 0 -1.0468597 0.34375q-0.421875 0.328125 -0.671875 1.21875q-0.25 0.890625 -0.25 3.703125l0 3.421875zm12.362564 0l-2.921875 0l0 -11.03125q-1.609375 1.5 -3.78125 2.21875l0 -2.65625q1.140625 -0.375 2.484375 -1.421875q1.34375 -1.046875 1.84375 -2.4375l2.375 0l0 15.328125zm8.049194 0l-4.46875 -11.0625l3.078125 0l2.078125 5.640625l0.609375 1.890625q0.234375 -0.71875 0.296875 -0.953125q0.15625 -0.46875 0.3125 -0.9375l2.109375 -5.640625l3.0 0l-4.390625 11.0625l-2.625 0zm11.002319 -7.6875l-2.65625 -0.484375q0.453125 -1.59375 1.546875 -2.359375q1.09375 -0.78125 3.25 -0.78125q1.953125 0 2.90625 0.46875q0.96875 0.453125 1.359375 1.171875q0.390625 0.71875 0.390625 2.625l-0.03125 3.40625q0 1.46875 0.125 2.15625q0.140625 0.6875 0.53125 1.484375l-2.890625 0q-0.109375 -0.296875 -0.28125 -0.859375q-0.078125 -0.265625 -0.109375 -0.34375q-0.75 0.71875 -1.609375 1.09375q-0.84375 0.359375 -1.8125 0.359375q-1.703125 0 -2.6875 -0.921875q-0.984375 -0.9375 -0.984375 -2.34375q0 -0.9375 0.4375 -1.671875q0.453125 -0.734375 1.25 -1.125q0.8125 -0.390625 2.34375 -0.6875q2.046875 -0.390625 2.84375 -0.71875l0 -0.296875q0 -0.84375 -0.421875 -1.203125q-0.421875 -0.359375 -1.578125 -0.359375q-0.78125 0 -1.21875 0.3125q-0.4375 0.3125 -0.703125 1.078125zm3.921875 2.375q-0.5625 0.1875 -1.78125 0.453125q-1.21875 0.25 -1.59375 0.5q-0.578125 0.40625 -0.578125 1.03125q0 0.625 0.453125 1.078125q0.46875 0.4375 1.171875 0.4375q0.796875 0 1.515625 -0.515625q0.53125 -0.40625 0.6875 -0.96875q0.125 -0.375 0.125 -1.4375l0 -0.578125zm5.7523193 5.3125l0 -15.265625l2.921875 0l0 15.265625l-2.921875 0zm15.210632 -2.203125l0 -3.96875l-4.0 0l0 -2.734375l4.0 0l0 -3.96875l2.65625 0l0 3.96875l4.015625 0l0 2.734375l-4.015625 0l0 3.96875l-2.65625 0zm15.021576 2.203125l0 -15.265625l2.921875 0l0 15.265625l-2.921875 0zm16.066254 0l-2.71875 0l0 -1.625q-0.671875 0.953125 -1.59375 1.421875q-0.921875 0.453125 -1.859375 0.453125q-1.90625 0 -3.265625 -1.53125q-1.359375 -1.546875 -1.359375 -4.296875q0 -2.8125 1.3125 -4.265625q1.328125 -1.46875 3.359375 -1.46875q1.84375 0 3.203125 1.546875l0 -5.5l2.921875 0l0 15.265625zm-7.8125 -5.765625q0 1.765625 0.5 2.5625q0.703125 1.140625 1.96875 1.140625q1.015625 0 1.71875 -0.859375q0.71875 -0.859375 0.71875 -2.5625q0 -1.90625 -0.6875 -2.75q-0.6875 -0.84375 -1.765625 -0.84375q-1.046875 0 -1.75 0.828125q-0.703125 0.828125 -0.703125 2.484375zm13.496826 5.765625l-2.921875 0l0 -11.0625l2.71875 0l0 1.578125q0.703125 -1.125 1.25 -1.46875q0.5625 -0.359375 1.265625 -0.359375q1.0 0 1.9375 0.5625l-0.90625 2.546875q-0.75 -0.484375 -1.375 -0.484375q-0.625 0 -1.046875 0.34375q-0.421875 0.328125 -0.671875 1.21875q-0.25 0.890625 -0.25 3.703125l0 3.421875zm14.753204 -2.71875l0 2.71875l-10.25 0q0.171875 -1.546875 1.0 -2.921875q0.828125 -1.375 3.296875 -3.65625q1.96875 -1.84375 2.421875 -2.5q0.609375 -0.90625 0.609375 -1.796875q0 -0.96875 -0.53125 -1.5q-0.53125 -0.53125 -1.453125 -0.53125q-0.921875 0 -1.46875 0.5625q-0.53125 0.546875 -0.609375 1.828125l-2.921875 -0.296875q0.265625 -2.40625 1.640625 -3.453125q1.375 -1.0625 3.4375 -1.0625q2.25 0 3.53125 1.21875q1.296875 1.21875 1.296875 3.03125q0 1.03125 -0.375 1.96875q-0.359375 0.921875 -1.15625 1.9375q-0.53125 0.6875 -1.921875 1.953125q-1.375 1.265625 -1.75 1.6875q-0.375 0.421875 -0.59375 0.8125l5.796875 0zm5.6585693 2.71875l-4.46875 -11.0625l3.078125 0l2.078125 5.640625l0.609375 1.890625q0.234375 -0.71875 0.296875 -0.953125q0.15625 -0.46875 0.3125 -0.9375l2.109375 -5.640625l3.0 0l-4.390625 11.0625l-2.625 0zm11.002319 -7.6875l-2.65625 -0.484375q0.453125 -1.59375 1.546875 -2.359375q1.09375 -0.78125 3.25 -0.78125q1.953125 0 2.90625 0.46875q0.96875 0.453125 1.359375 1.171875q0.390625 0.71875 0.390625 2.625l-0.03125 3.40625q0 1.46875 0.125 2.15625q0.140625 0.6875 0.53125 1.484375l-2.890625 0q-0.109375 -0.296875 -0.28125 -0.859375q-0.078125 -0.265625 -0.109375 -0.34375q-0.75 0.71875 -1.609375 1.09375q-0.84375 0.359375 -1.8125 0.359375q-1.703125 0 -2.6875 -0.921875q-0.984375 -0.9375 -0.984375 -2.34375q0 -0.9375 0.4375 -1.671875q0.453125 -0.734375 1.25 -1.125q0.8125 -0.390625 2.34375 -0.6875q2.046875 -0.390625 2.84375 -0.71875l0 -0.296875q0 -0.84375 -0.421875 -1.203125q-0.421875 -0.359375 -1.578125 -0.359375q-0.78125 0 -1.21875 0.3125q-0.4375 0.3125 -0.703125 1.078125zm3.921875 2.375q-0.5625 0.1875 -1.78125 0.453125q-1.21875 0.25 -1.59375 0.5q-0.578125 0.40625 -0.578125 1.03125q0 0.625 0.453125 1.078125q0.46875 0.4375 1.171875 0.4375q0.796875 0 1.515625 -0.515625q0.53125 -0.40625 0.6875 -0.96875q0.125 -0.375 0.125 -1.4375l0 -0.578125zm5.7523193 5.3125l0 -15.265625l2.921875 0l0 15.265625l-2.921875 0zm5.1131287 4.484375q0.859375 -1.84375 1.21875 -2.84375q0.359375 -0.984375 0.65625 -2.265625q0.296875 -1.296875 0.4375 -2.453125q0.15625 -1.171875 0.15625 -2.390625q0 -2.484375 -0.53125 -4.6875q-0.53125 -2.21875 -1.953125 -5.375l1.984375 0q1.578125 2.25 2.4375 4.765625q0.875 2.5 0.875 5.078125q0 2.171875 -0.6875 4.671875q-0.78125 2.78125 -2.578125 5.5l-2.015625 0zm12.278137 -4.21875l3.78125 -15.796875l2.203125 0l-3.828125 15.796875l-2.15625 0zm22.663818 -2.984375l0 2.71875l-10.25 0q0.171875 -1.546875 1.0 -2.921875q0.828125 -1.375 3.296875 -3.65625q1.96875 -1.84375 2.421875 -2.5q0.609375 -0.90625 0.609375 -1.796875q0 -0.96875 -0.53125 -1.5q-0.53125 -0.53125 -1.453125 -0.53125q-0.921875 0 -1.46875 0.5625q-0.53125 0.546875 -0.609375 1.828125l-2.921875 -0.296875q0.265625 -2.40625 1.640625 -3.453125q1.375 -1.0625 3.4375 -1.0625q2.25 0 3.53125 1.21875q1.296875 1.21875 1.296875 3.03125q0 1.03125 -0.375 1.96875q-0.359375 0.921875 -1.15625 1.9375q-0.53125 0.6875 -1.921875 1.953125q-1.375 1.265625 -1.75 1.6875q-0.375 0.421875 -0.59375 0.8125l5.796875 0z" fill-rule="nonzero"/><path fill="#cfe2f3" d="m152.50787 490.63516l129.04987 -63.797882l129.04987 63.797882l-129.04987 63.797882z" fill-rule="evenodd"/><path stroke="#000000" stroke-width="1.0" stroke-linejoin="round" stroke-linecap="butt" d="m152.50787 490.63516l129.04987 -63.797882l129.04987 63.797882l-129.04987 63.797882z" fill-rule="evenodd"/><path fill="#000000" d="m237.77719 485.11517l0 -15.265625l3.09375 0l0 15.265625l-3.09375 0zm4.972519 -3.15625l2.9375 -0.453125q0.1875 0.859375 0.75 1.3125q0.578125 0.4375 1.609375 0.4375q1.140625 0 1.71875 -0.421875q0.375 -0.296875 0.375 -0.78125q0 -0.328125 -0.203125 -0.546875q-0.21875 -0.21875 -0.984375 -0.390625q-3.53125 -0.78125 -4.484375 -1.421875q-1.3125 -0.90625 -1.3125 -2.5q0 -1.4375 1.125 -2.40625q1.140625 -0.984375 3.53125 -0.984375q2.265625 0 3.375 0.75q1.109375 0.734375 1.515625 2.171875l-2.75 0.515625q-0.1875 -0.640625 -0.6875 -0.984375q-0.484375 -0.34375 -1.40625 -0.34375q-1.15625 0 -1.65625 0.3125q-0.328125 0.234375 -0.328125 0.59375q0 0.3125 0.296875 0.53125q0.390625 0.296875 2.71875 0.828125q2.34375 0.53125 3.28125 1.296875q0.90625 0.78125 0.90625 2.1875q0 1.515625 -1.265625 2.609375q-1.265625 1.09375 -3.765625 1.09375q-2.25 0 -3.578125 -0.90625q-1.3125 -0.921875 -1.71875 -2.5zm18.818588 3.15625l0 -15.265625l2.921875 0l0 15.265625l-2.921875 0zm16.066254 0l-2.71875 0l0 -1.625q-0.671875 0.953125 -1.59375 1.421875q-0.921875 0.453125 -1.859375 0.453125q-1.90625 0 -3.265625 -1.53125q-1.359375 -1.546875 -1.359375 -4.296875q0 -2.8125 1.3125 -4.265625q1.328125 -1.46875 3.359375 -1.46875q1.84375 0 3.203125 1.546875l0 -5.5l2.921875 0l0 15.265625zm-7.8125 -5.765625q0 1.765625 0.5 2.5625q0.703125 1.140625 1.96875 1.140625q1.015625 0 1.71875 -0.859375q0.71875 -0.859375 0.71875 -2.5625q0 -1.90625 -0.6875 -2.75q-0.6875 -0.84375 -1.765625 -0.84375q-1.046875 0 -1.75 0.828125q-0.703125 0.828125 -0.703125 2.484375zm13.496826 5.765625l-2.921875 0l0 -11.0625l2.71875 0l0 1.578125q0.703125 -1.125 1.25 -1.46875q0.5625 -0.359375 1.265625 -0.359375q1.0 0 1.9375 0.5625l-0.90625 2.546875q-0.75 -0.484375 -1.375 -0.484375q-0.625 0 -1.046875 0.34375q-0.421875 0.328125 -0.671875 1.21875q-0.25 0.890625 -0.25 3.703125l0 3.421875zm19.284454 0l-3.34375 0l-1.328125 -3.46875l-6.109375 0l-1.265625 3.46875l-3.265625 0l5.953125 -15.265625l3.25 0l6.109375 15.265625zm-5.671875 -6.046875l-2.09375 -5.65625l-2.0625 5.65625l4.15625 0zm9.548309 6.046875l-4.46875 -11.0625l3.078125 0l2.078125 5.640625l0.609375 1.890625q0.234375 -0.71875 0.296875 -0.953125q0.15625 -0.46875 0.3125 -0.9375l2.109375 -5.640625l3.0 0l-4.390625 11.0625l-2.625 0zm8.549194 0.734375l3.34375 0.40625q0.078125 0.578125 0.375 0.796875q0.421875 0.3125 1.3125 0.3125q1.15625 0 1.71875 -0.34375q0.390625 -0.234375 0.59375 -0.734375q0.125 -0.375 0.125 -1.34375l0 -1.625q-1.3125 1.796875 -3.3125 1.796875q-2.21875 0 -3.53125 -1.890625q-1.015625 -1.484375 -1.015625 -3.703125q0 -2.78125 1.328125 -4.25q1.34375 -1.46875 3.34375 -1.46875q2.046875 0 3.375 1.796875l0 -1.546875l2.734375 0l0 9.921875q0 1.96875 -0.328125 2.9375q-0.3125 0.96875 -0.890625 1.515625q-0.578125 0.546875 -1.5625 0.859375q-0.96875 0.3125 -2.453125 0.3125q-2.8125 0 -4.0 -0.96875q-1.171875 -0.953125 -1.171875 -2.4375q0 -0.140625 0.015625 -0.34375zm2.609375 -6.5q0 1.765625 0.671875 2.59375q0.6875 0.8125 1.6875 0.8125q1.078125 0 1.8125 -0.84375q0.75 -0.84375 0.75 -2.484375q0 -1.71875 -0.71875 -2.546875q-0.703125 -0.84375 -1.78125 -0.84375q-1.0625 0 -1.75 0.828125q-0.671875 0.8125 -0.671875 2.484375z" fill-rule="nonzero"/><path fill="#000000" d="m259.8002 509.3808l-10.468735 -4.5625l0 -2.515625l10.468735 -4.53125l0 2.96875l-7.2968597 2.796875l7.2968597 2.890625l0 2.953125zm1.8927917 -6.765625l0 -2.6875l10.671875 0l0 2.6875l-10.671875 0zm0 4.625l0 -2.703125l10.671875 0l0 2.703125l-10.671875 0zm25.88095 3.875l-2.921875 0l0 -11.03125q-1.609375 1.5 -3.78125 2.21875l0 -2.65625q1.140625 -0.375 2.484375 -1.421875q1.34375 -1.046875 1.84375 -2.4375l2.375 0l0 15.328125zm9.330444 -15.328125q2.21875 0 3.46875 1.578125q1.484375 1.875 1.484375 6.21875q0 4.328125 -1.5 6.234375q-1.234375 1.5625 -3.453125 1.5625q-2.234375 0 -3.609375 -1.71875q-1.359375 -1.71875 -1.359375 -6.109375q0 -4.3125 1.5 -6.203125q1.25 -1.5625 3.46875 -1.5625zm0 2.421875q-0.53125 0 -0.953125 0.34375q-0.421875 0.34375 -0.640625 1.21875q-0.3125 1.125 -0.3125 3.8125q0 2.6875 0.265625 3.703125q0.28125 1.0 0.6875 1.328125q0.421875 0.328125 0.953125 0.328125q0.53125 0 0.9375 -0.328125q0.421875 -0.34375 0.65625 -1.21875q0.296875 -1.125 0.296875 -3.8125q0 -2.6875 -0.28125 -3.6875q-0.265625 -1.0 -0.671875 -1.34375q-0.40625 -0.34375 -0.9375 -0.34375zm11.861694 -2.421875q2.21875 0 3.46875 1.578125q1.484375 1.875 1.484375 6.21875q0 4.328125 -1.5 6.234375q-1.234375 1.5625 -3.453125 1.5625q-2.234375 0 -3.609375 -1.71875q-1.359375 -1.71875 -1.359375 -6.109375q0 -4.3125 1.5 -6.203125q1.25 -1.5625 3.46875 -1.5625zm0 2.421875q-0.53125 0 -0.953125 0.34375q-0.421875 0.34375 -0.640625 1.21875q-0.3125 1.125 -0.3125 3.8125q0 2.6875 0.265625 3.703125q0.28125 1.0 0.6875 1.328125q0.421875 0.328125 0.953125 0.328125q0.53125 0 0.9375 -0.328125q0.421875 -0.34375 0.65625 -1.21875q0.296875 -1.125 0.296875 -3.8125q0 -2.6875 -0.28125 -3.6875q-0.265625 -1.0 -0.671875 -1.34375q-0.40625 -0.34375 -0.9375 -0.34375z" fill-rule="nonzero"/><path fill="#000000" fill-opacity="0.0" d="m410.6076 490.63516l71.87402 0" fill-rule="evenodd"/><path stroke="#000000" stroke-width="1.0" stroke-linejoin="round" stroke-linecap="butt" d="m410.6076 490.63516l65.87402 0" fill-rule="evenodd"/><path fill="#000000" stroke="#000000" stroke-width="1.0" stroke-linecap="butt" d="m476.48163 492.2869l4.538086 -1.6517334l-4.538086 -1.6517334z" fill-rule="evenodd"/><path fill="#000000" fill-opacity="0.0" d="m281.55643 327.97113l0 28.944885" fill-rule="evenodd"/><path stroke="#000000" stroke-width="1.0" stroke-linejoin="round" stroke-linecap="butt" d="m281.55643 327.97113l0 22.944885" fill-rule="evenodd"/><path fill="#000000" stroke="#000000" stroke-width="1.0" stroke-linecap="butt" d="m279.9047 350.91602l1.6517334 4.538086l1.6517334 -4.538086z" fill-rule="evenodd"/><path fill="#000000" fill-opacity="0.0" d="m281.55643 401.81366l0 25.039368" fill-rule="evenodd"/><path stroke="#000000" stroke-width="1.0" stroke-linejoin="round" stroke-linecap="butt" d="m281.55643 401.81366l0 19.039368" fill-rule="evenodd"/><path fill="#000000" stroke="#000000" stroke-width="1.0" stroke-linecap="butt" d="m279.9047 420.85303l1.6517334 4.538086l1.6517334 -4.538086z" fill-rule="evenodd"/></g></svg>